<svg xmlns="http://www.w3.org/2000/svg">

  <symbol id="react" viewBox="0 0 17.825119 15.875001">
    <path d="m 12.5352,0.0042 c -0.9992,0 -2.30758,0.7122 -3.63014,1.9476 C 7.5825,0.7237 6.27464,0.0187 5.27545,0.0187 v 0 c -0.30521,0 -0.5813,0.065 -0.82111,0.2036 C 3.43336,0.811 3.20457,2.6459 3.73142,4.9495 1.47143,5.6471 0,6.7626 0,7.9399 c 0,1.1809 1.47863,2.3 3.74589,2.994 -0.52321,2.3109 -0.29085,4.1494 0.73377,4.738 0.23617,0.1381 0.51228,0.2031 0.81749,0.2031 0.99919,0 2.30757,-0.7118 3.63013,-1.9471 1.32256,1.228 2.63043,1.9326 3.62963,1.9326 0.3052,0 0.58129,-0.065 0.8211,-0.2031 1.02099,-0.5887 1.24978,-2.4235 0.72293,-4.7271 2.25272,-0.694 3.72418,-1.8131 3.72418,-2.9904 0,-1.1809 -1.47864,-2.3 -3.74589,-2.9941 C 14.60244,2.635 14.37009,0.7964 13.34546,0.2078 13.11023,0.0703 12.83535,0.0047 12.5352,0.0042 v 0.8062 h -0.004 v 0 c 0.16713,0 0.30127,0.033 0.4139,0.094 0.49415,0.2834 0.70869,1.3625 0.54155,2.7506 -0.04,0.3414 -0.10558,0.701 -0.18551,1.068 C 12.58898,4.5486 11.81139,4.4144 10.99387,4.3272 10.50336,3.6551 9.99472,3.0445 9.4824,2.5104 10.665,1.4111 11.77552,0.8081 12.5312,0.8062 V 0 h 0.004 z M 5.27545,0.8295 c 0.75211,0 1.86741,0.5991 3.0519,1.6928 C 7.81867,3.0565 7.30996,3.6634 6.82672,4.3355 6.00556,4.4225 5.22799,4.5569 4.51584,4.735 4.43224,4.3716 4.37082,4.0193 4.32723,3.6814 4.15645,2.2934 4.36693,1.2141 4.85741,0.9271 c 0.109,-0.065 0.2509,-0.094 0.41804,-0.094 z m 3.626,2.2638 C 9.23936,3.4421 9.57742,3.8309 9.91169,4.2559 9.58468,4.2409 9.25021,4.2309 8.9123,4.2309 c -0.34154,0 -0.67908,0.01 -1.00972,0.025 0.32701,-0.425 0.6646,-0.8138 0.99887,-1.1626 z m 0.0108,1.9512 c 0.54864,0 1.09775,0.025 1.6355,0.069 0.30157,0.4323 0.59557,0.8933 0.87898,1.3802 0.27614,0.4759 0.52709,0.9595 0.756,1.4464 -0.22891,0.4869 -0.47987,0.9735 -0.75238,1.4494 -0.28341,0.4906 -0.57379,0.9556 -0.87537,1.388 -0.54138,0.047 -1.09045,0.073 -1.64273,0.073 -0.54865,0 -1.09724,-0.025 -1.63497,-0.069 C 6.9757,10.3491 6.68169,9.8876 6.39829,9.4007 6.12215,8.9249 5.87119,8.4418 5.64229,7.9549 5.86756,7.468 6.12217,6.9809 6.39467,6.505 6.67808,6.0145 6.96846,5.5494 7.27004,5.117 7.81141,5.07 8.35997,5.044 8.91225,5.044 Z M 6.21278,5.2336 C 6.03473,5.5133 5.85698,5.8003 5.68983,6.0946 5.5227,6.3853 5.3665,6.6756 5.21752,6.9663 5.02132,6.4795 4.85384,5.9928 4.71576,5.5204 5.19174,5.4078 5.69319,5.3099 6.21278,5.2336 Z m 5.39223,0 c 0.51595,0.076 1.01379,0.1705 1.48978,0.2868 -0.13444,0.4687 -0.30198,0.9518 -0.49092,1.435 C 12.4549,6.6647 12.29873,6.3744 12.12795,6.0837 11.96082,5.793 11.78305,5.5097 11.60501,5.2336 Z m 2.2742,0.5013 c 0.3597,0.1126 0.70133,0.2361 1.02108,0.3705 1.28622,0.5486 2.11814,1.2681 2.11814,1.8386 -0.004,0.5705 -0.83552,1.2935 -2.12175,1.8385 -0.31247,0.1344 -0.65419,0.2542 -1.00662,0.3669 C 13.68294,9.4372 13.41047,8.6961 13.07257,7.9367 13.40683,7.1809 13.67573,6.4434 13.87921,5.7349 Z m -9.94838,0 C 4.13794,6.4471 4.41093,7.1881 4.74884,7.9476 4.41457,8.7033 4.14567,9.4408 3.9422,10.1494 3.58249,10.0368 3.24084,9.9133 2.92473,9.7789 1.6385,9.2303 0.80608,8.5109 0.80608,7.9404 0.80608,7.3699 1.6385,6.6467 2.92473,6.1018 3.2372,5.9674 3.57839,5.8476 3.93083,5.7349 Z m 4.9778,0.5452 A 1.6604719,1.6604719 0 0 0 7.24834,7.9404 1.6604719,1.6604719 0 0 0 8.90863,9.6006 1.6604719,1.6604719 0 0 0 10.56945,7.9404 1.6604719,1.6604719 0 0 0 8.90863,6.2801 Z m 3.69524,2.6339 c 0.19621,0.4868 0.36369,0.974 0.50176,1.4463 -0.47598,0.1163 -0.97743,0.2141 -1.49701,0.2904 0.17804,-0.2798 0.35581,-0.5666 0.52295,-0.8609 0.16714,-0.2907 0.32333,-0.5851 0.4723,-0.8758 z M 5.21752,8.928 C 5.3665,9.2187 5.52267,9.5095 5.69344,9.8002 5.86421,10.0909 6.03835,10.3742 6.2164,10.6503 5.70044,10.5743 5.2026,10.4797 4.72662,10.3635 4.86106,9.8947 5.02859,9.4112 5.21752,8.928 Z m 8.0912,2.2174 c 0.0836,0.3668 0.14915,0.7189 0.18912,1.0566 v 6e-4 c 0.17065,1.3877 -0.0403,2.4661 -0.53069,2.7532 -0.109,0.065 -0.2504,0.095 -0.41753,0.095 -0.75213,0 -1.86791,-0.5992 -3.05241,-1.6929 0.50868,-0.5341 1.01737,-1.1411 1.50062,-1.8132 0.82115,-0.087 1.59873,-0.2214 2.31089,-0.3994 z m -8.78518,0.01 c 0.71215,0.1744 1.48922,0.3086 2.30674,0.3958 0.49051,0.6721 0.99969,1.2828 1.512,1.8169 -1.18449,1.101 -2.29666,1.7036 -3.05241,1.7036 -0.1635,0 -0.30129,-0.036 -0.41029,-0.098 v -6e-4 C 4.38543,14.6897 4.17089,13.611 4.33803,12.223 c 0.04,-0.3414 0.10557,-0.7011 0.18551,-1.068 z m 3.38623,0.4759 c 0.32701,0.015 0.66096,0.025 0.99886,0.025 0.34155,0 0.6796,-0.01 1.01024,-0.025 -0.32701,0.4251 -0.66511,0.8138 -0.99939,1.1626 -0.3379,-0.3488 -0.67544,-0.7375 -1.00971,-1.1626 z"/>
  </symbol>

  <symbol id="html" viewBox="0 0 11.2469 15.875001">
    <path d="M 1.04638,0 H 1.76191 V 0.7069 H 2.41645 V 0 H 3.13204 V 2.1407 H 2.41652 V 1.4238 H 1.76197 V 2.1407 H 1.04645 V 0 Z M 4.07296,0.7099 H 3.44308 V 0 H 5.41874 V 0.7099 H 4.78855 V 2.1407 H 4.07302 V 0.7099 Z M 5.73226,0 H 6.47848 L 6.93737,0.7522 7.39588,0 H 8.14219 V 2.1407 H 7.42959 V 1.0797 L 6.93734,1.8408 H 6.92504 L 6.43245,1.0797 v 1.061 H 5.73224 Z m 2.76611,0 h 0.71572 v 1.4332 h 1.00628 v 0.7075 h -1.722 z M 0,3.1198 1.02352,14.6 5.61654,15.875 10.22229,14.5982 11.2469,3.1198 Z M 9.11191,5.8442 9.04781,6.558 9.01971,6.8745 h -0.005 -3.39158 -0.005 -1.9869 l 0.12868,1.4417 h 1.85822 0.005 2.88858 0.37945 L 8.85676,8.6944 8.5259,12.4012 8.5047,12.639 5.62308,13.4377 v 2e-4 h -0.006 L 2.73289,12.6372 2.53558,10.4265 h 0.65147 0.76197 l 0.10025,1.1229 1.56806,0.4235 0.001,-4e-4 v -10e-5 L 7.18878,11.5487 7.35209,9.7225 H 5.62323 5.61823 2.47229 L 2.12624,5.8424 2.09254,5.4647 h 3.5257 0.005 3.52216 z" />
  </symbol>

  <symbol id="css" viewBox="0 0 15.8751 15.875">
    <path d="m 0,0 v 13.335 c 0,1.4028 1.13724,2.54 2.54006,2.54 h 10.79498 c 1.40282,0 2.54006,-1.1372 2.54006,-2.54 V 2.5396 C 15.87487,1.1369 14.73771,0 13.33504,0 Z m 9.41635,8.6513 c 0.44693,-0.01 0.89387,0.1386 1.14158,0.4391 0.30559,0.3097 0.43922,0.9192 0.41331,1.4802 H 9.90747 C 9.91647,10.34 9.89447,9.968 9.80499,9.8324 9.74229,9.7176 9.62355,9.6601 9.44907,9.6601 c -0.31098,0 -0.46609,0.1858 -0.46609,0.5574 0,0.3947 0.15696,0.5567 0.51546,0.7216 0.46418,0.1804 1.05444,0.4883 1.26839,0.8611 0.63819,1.1357 0.20032,2.8704 -1.36671,2.8043 l 3.5e-4,4e-4 c -1.12985,0.015 -1.63542,-0.7885 -1.60419,-1.878 h 1.10495 c -0.0307,0.475 0.13241,0.9078 0.52357,0.8777 0.17448,0 0.29721,-0.055 0.36819,-0.1642 C 9.92792,13.2405 9.95342,12.6635 9.76019,12.4401 9.6254,12.2249 9.14042,12.0349 8.88433,11.9069 8.51873,11.732 8.25569,11.5243 8.09471,11.2837 7.73164,10.7496 7.76505,9.5776 8.27444,9.1027 8.52195,8.8096 8.96901,8.6562 9.41601,8.6513 Z m 3.56811,0 c 0.447,-0.01 0.89387,0.1386 1.14163,0.4391 0.3056,0.3097 0.4391,0.9192 0.41326,1.4802 H 13.47564 C 13.48464,10.34 13.46274,9.968 13.3735,9.8324 13.3108,9.7176 13.19166,9.6601 13.01725,9.6601 c -0.31105,0 -0.46616,0.1858 -0.46616,0.5574 0,0.3947 0.15702,0.5567 0.51545,0.7216 0.46419,0.1804 1.05443,0.4883 1.26846,0.8611 0.63818,1.1357 0.20032,2.8704 -1.36671,2.8043 l 3.4e-4,4e-4 c -1.12985,0.015 -1.63548,-0.7885 -1.60418,-1.878 h 1.10488 c -0.0307,0.475 0.13242,0.9078 0.52357,0.8777 0.17448,0 0.29728,-0.055 0.36826,-0.1642 0.13493,-0.1999 0.16009,-0.7769 -0.0327,-1.0003 -0.13481,-0.2152 -0.61951,-0.4052 -0.8756,-0.5332 -0.36559,-0.1749 -0.62857,-0.3826 -0.78955,-0.6232 -0.36307,-0.5341 -0.32946,-1.7061 0.18,-2.181 0.24751,-0.2931 0.6943,-0.4465 1.14123,-0.4514 z m -7.25008,0.01 c 0.46617,0 0.93083,0.1347 1.20676,0.4267 0.34002,0.2998 0.46841,0.9123 0.43793,1.484 H 6.20859 C 6.21759,10.3474 6.2088,10.0071 6.07366,9.879 5.90204,9.6467 5.4487,9.6742 5.32883,9.916 c -0.0736,0.1312 -0.1103,0.3252 -0.1103,0.5822 v 2.3205 c 0,0.4866 0.16909,0.7327 0.5074,0.7381 0.15811,0 0.27832,-0.057 0.36007,-0.1723 0.11414,-0.1362 0.1318,-0.438 0.12259,-0.656 h 1.17014 c 0.08,1.1122 -0.57648,1.8915 -1.69371,1.8779 -1.01946,0 -1.64892,-0.5751 -1.63698,-1.6317 v -2.6731 c 0,-0.5358 0.15702,-0.9432 0.47072,-1.222 0.28173,-0.2714 0.7494,-0.4151 1.21562,-0.4182 z" />
  </symbol>

  <symbol id="js" viewBox="0 0 15.87509 15.875">
    <path d="M 0,0 V 15.875 H 15.87509 V 0 Z m 12.08285,7.2041 c 0.94849,0 1.63009,0.33 2.12143,1.1943 l -1.16162,0.7455 c -0.25576,-0.4584 -0.53142,-0.639 -0.95981,-0.639 -0.43689,0 -0.71385,0.2772 -0.71385,0.639 0,0.4476 0.27708,0.6291 0.91718,0.9063 l 0.37273,0.16 c 1.26754,0.5435 1.98337,1.0976 1.98337,2.3435 0,1.3431 -1.05504,2.0787 -2.47202,2.0787 -1.38539,0 -2.28043,-0.66 -2.71836,-1.5252 l 1.2121,-0.7044 c 0.31974,0.522 0.73587,0.906 1.4717,0.906 0.61814,0 1.01298,-0.3093 1.01298,-0.7362 0,-0.5115 -0.40588,-0.6924 -1.08629,-0.99 L 11.68966,11.4227 C 10.61312,10.9643 9.89798,10.3895 9.89798,9.1751 c 0,-1.119 0.85266,-1.9704 2.18487,-1.9704 z m -4.92922,0.085 h 1.49175 v 5.0928 c 0,1.5448 -0.90554,2.2474 -2.22746,2.2474 -1.19432,0 -1.88624,-0.618 -2.23807,-1.3624 l 1.21453,-0.735 c 0.23434,0.4158 0.44754,0.7672 0.96008,0.7672 0.49008,0 0.79917,-0.192 0.79917,-0.9372 z" />
  </symbol>

</svg>
